<svg width="73" height="14" viewBox="0 0 73 14" fill="none" xmlns="http://www.w3.org/2000/svg">
<path d="M6.61403 1.24677C6.86494 1.17105 7.18311 1.25382 7.81943 1.41926L10.6661 2.15937C11.066 2.26334 11.2659 2.31535 11.4147 2.42825C11.5459 2.52787 11.6484 2.66046 11.7118 2.81254C11.7837 2.9849 11.7837 3.19146 11.7837 3.6046L11.7836 10.5221C11.7836 11.5363 12.3128 11.9524 12.5149 12.0743C12.5354 12.0867 12.5287 12.1232 12.505 12.1262L8.30945 12.6408C8.30945 12.6408 6.86494 12.8287 6.61403 12.753C6.39416 12.6866 6.20644 12.5416 6.08686 12.3455C5.95041 12.1217 5.95037 11.7928 5.95037 11.1353V2.8645C5.95037 2.20696 5.95042 1.8782 6.08686 1.65442C6.20644 1.45831 6.39414 1.31315 6.61403 1.24677Z" fill="#F2F3F4"/>
<path d="M4.78371 1.7499C5.1703 1.7499 5.48369 2.06331 5.48371 2.4499V11.5499C5.48371 11.9365 5.17031 12.2499 4.78371 12.2499C4.39711 12.2499 4.08371 11.9365 4.08371 11.5499V2.4499C4.08372 2.06331 4.39712 1.7499 4.78371 1.7499Z" fill="#F2F3F4"/>
<path d="M2.91704 2.33323C3.30363 2.33323 3.61703 2.64664 3.61704 3.03323V10.9666C3.61704 11.3532 3.30364 11.6666 2.91704 11.6666C2.53044 11.6666 2.21704 11.3532 2.21704 10.9666V3.03323C2.21706 2.64664 2.53045 2.33323 2.91704 2.33323Z" fill="#F2F3F4"/>
<path d="M69.8347 11.6044C69.7527 11.6044 69.6767 11.5613 69.6345 11.491L68.0628 8.86784C68.0417 8.83266 68.0037 8.81114 67.9627 8.81114H67.4263C67.3619 8.81114 67.3097 8.86337 67.3097 8.9278V11.3711C67.3097 11.4999 67.2052 11.6044 67.0763 11.6044H65.2809C65.1521 11.6044 65.0476 11.4999 65.0476 11.3711V2.84857C65.0476 2.7197 65.1521 2.61523 65.2809 2.61523H67.3994C67.5283 2.61523 67.6325 2.71896 67.6308 2.84781C67.6232 3.42282 67.5858 4.95527 67.4034 6.20609C67.3503 6.5704 67.2206 6.9176 67.0453 7.24137C67.0315 7.26682 67.0644 7.29172 67.0852 7.2716L69.4385 4.99341C69.482 4.95128 69.5402 4.92772 69.6008 4.92772H71.3577C71.5662 4.92772 71.67 5.18029 71.5218 5.32692L69.5218 7.30575C69.4824 7.34478 69.4759 7.4062 69.5063 7.45262L71.9894 11.2432C72.0911 11.3984 71.9798 11.6044 71.7943 11.6044H69.8347Z" fill="#F2F3F4"/>
<path d="M60.3083 4.77075C62.2696 4.77075 63.8256 5.93447 63.8256 8.17037C63.8256 10.4063 62.2696 11.6223 60.3083 11.6223C58.347 11.6223 56.791 10.4063 56.791 8.17037C56.791 5.93447 58.347 4.77075 60.3083 4.77075ZM60.3475 10.0271C61.1713 10.0271 61.5113 9.21641 61.5113 8.18345C61.5113 7.16356 61.1582 6.36596 60.3475 6.36596H60.2691C59.4453 6.36596 59.1054 7.17664 59.1054 8.18345C59.1054 9.20334 59.4453 10.0271 60.2691 10.0271H60.3475Z" fill="#F2F3F4"/>
<path d="M52.3789 4.77075C54.3402 4.77075 55.8962 5.93447 55.8962 8.17037C55.8962 10.4063 54.3402 11.6223 52.3789 11.6223C50.4176 11.6223 48.8616 10.4063 48.8616 8.17037C48.8616 5.93447 50.4176 4.77075 52.3789 4.77075ZM52.4181 10.0271C53.2419 10.0271 53.5818 9.21641 53.5818 8.18345C53.5818 7.16356 53.2288 6.36596 52.4181 6.36596H52.3396C51.5159 6.36596 51.1759 7.17664 51.1759 8.18345C51.1759 9.20334 51.5159 10.0271 52.3396 10.0271H52.4181Z" fill="#F2F3F4"/>
<path d="M45.2406 11.6223C44.3378 11.6223 43.3969 10.8146 43.1389 10.5763C43.121 10.5597 43.0908 10.5789 43.0976 10.6024C43.1456 10.7686 43.2401 11.1235 43.2401 11.3477C43.2401 11.4127 43.1874 11.4654 43.1224 11.4654H41.2114C41.0825 11.4654 40.978 11.3609 40.978 11.232V2.84442C40.978 2.71556 41.0825 2.61109 41.2114 2.61109H43.0068C43.1356 2.61109 43.2401 2.71556 43.2401 2.84442V4.87533C43.2401 5.18181 43.2401 5.64782 43.2401 5.81526C43.2401 5.83689 43.2674 5.84731 43.2821 5.83146C43.4771 5.62143 44.3237 4.77072 45.2406 4.77072C46.8228 4.77072 47.9734 6.09134 47.9734 8.22265C47.9734 10.3539 46.8228 11.6223 45.2406 11.6223ZM44.43 10.0271C45.2537 10.0271 45.6198 9.25561 45.6198 8.20957C45.6198 7.15046 45.2537 6.36593 44.43 6.36593H44.3777C43.5277 6.36593 43.1747 7.16353 43.1747 8.20957C43.1747 9.25561 43.5277 10.0271 44.3777 10.0271H44.43Z" fill="#F2F3F4"/>
<path d="M36.5167 4.77075C38.5172 4.77075 39.8901 6.03907 39.8901 8.18345V8.38161C39.8901 8.51047 39.7857 8.61494 39.6568 8.61494H35.4314C35.3953 8.61494 35.366 8.64421 35.366 8.68032C35.3791 9.39947 35.8237 10.0663 36.5951 10.0663H36.6213C37.1467 10.0663 37.4714 9.77956 37.6281 9.47574C37.6741 9.38647 37.7612 9.32102 37.8616 9.32102H39.5945C39.7453 9.32102 39.8568 9.46235 39.8085 9.6052C39.3693 10.9038 38.1696 11.6223 36.5821 11.6223C34.4377 11.6223 33.1301 10.2232 33.1301 8.22268C33.1301 6.05215 34.5161 4.77075 36.5167 4.77075ZM35.4015 7.1623C35.3736 7.29545 35.4823 7.412 35.6184 7.412H37.428C37.5641 7.412 37.6729 7.29542 37.6443 7.16239C37.5258 6.61061 37.1587 6.1829 36.5428 6.1829H36.4905C35.8747 6.1829 35.5175 6.61057 35.4015 7.1623Z" fill="#F2F3F4"/>
<path d="M31.9351 11.2321C31.9351 11.361 31.8306 11.4655 31.7017 11.4655H29.7645C29.6995 11.4655 29.6469 11.4128 29.6469 11.3478C29.6469 11.0846 29.7704 10.7124 29.8333 10.54C29.8417 10.5168 29.8122 10.495 29.7932 10.511C29.499 10.7582 28.4026 11.6224 27.4502 11.6224C26.2472 11.6224 25.4104 10.8771 25.4104 9.36032V5.16107C25.4104 5.0322 25.5149 4.92773 25.6437 4.92773H27.4391C27.568 4.92773 27.6725 5.0322 27.6725 5.16107V8.9419C27.6725 9.56953 28.0386 9.90949 28.6139 9.90949H28.6662C29.2023 9.90949 29.6599 9.51722 29.6599 8.87653V5.16107C29.6599 5.0322 29.7644 4.92773 29.8933 4.92773H31.7017C31.8306 4.92773 31.9351 5.0322 31.9351 5.16107V11.2321Z" fill="#F2F3F4"/>
<path d="M24.088 8.26188C24.2286 8.26188 24.3377 8.3858 24.3118 8.52397C23.9565 10.4254 22.4467 11.6223 20.1949 11.6223C17.4491 11.6223 15.8669 9.9617 15.8669 7.15047C15.8669 4.37847 17.5406 2.61328 20.208 2.61328C22.4101 2.61328 23.8699 3.75065 24.2551 5.68171C24.2829 5.82104 24.1734 5.94753 24.0314 5.94753H22.1822C22.0689 5.94753 21.9732 5.86566 21.9449 5.75595C21.7248 4.90119 21.0874 4.37847 20.2342 4.37847H20.1295C18.9266 4.37847 18.2205 5.37221 18.2205 7.13739C18.2205 8.88951 18.9658 9.85709 20.1295 9.85709H20.208C21.1514 9.85709 21.7591 9.21945 21.9692 8.45118C21.9989 8.34263 22.0941 8.26188 22.2066 8.26188H24.088Z" fill="#F2F3F4"/>
</svg>
